# File created by Blade
# Date/Time:  Wed Sep 24 19:42:34 2014
# Frame Rate: 120.000 fps
#------------------------------------------------------
:FULLY-SPECIFIED
:DEGREES
2385
root -4.835660 33.064783 -4.062851 5.709049 3.297901 -2.064361
Spine -14.444716 14.648526 -12.957393
Head 17.371886 -17.316562 5.615320
LeftShoulder -17.317598 27.850460 4.623721
LeftArm 23.897639 19.310960 -55.703279
LeftForeArm 3.301439 -0.000000 30.475245
LeftHand -25.651173 -0.000000 -6.420875
LeftHandThumb1 -26.253704 0.000000 33.147579
RightShoulder 343.844595 12.277448 315.404046
RightArm 53.458215 -6.940515 5.202512
RightForeArm -19.080489 -0.000000 48.068947
RightHand -5.740112 -0.000000 50.149055
RightHandThumb1 -24.326973 -0.000000 -32.862282
LeftUpLeg -2.041649 3.817906 6.342108
LeftLeg -0.899748 -0.000000 0.000000
LeftFoot -7.414837 4.508121 -19.484964
LeftToeBase 10.486280 -0.000000 -0.000000
RightUpLeg -3.988806 -7.878570 0.446319
RightLeg 3.499030 -0.000000 -0.000000
RightFoot -6.194861 -5.827101 -15.332274
RightToeBase 1.331142 -0.000000 -0.000000
2386
root -4.830730 33.065315 -4.064907 5.731920 3.232867 -2.045461
Spine -14.447204 14.737224 -12.906307
Head 17.434838 -17.370756 5.565383
LeftShoulder -17.302359 27.894236 4.616003
LeftArm 23.855662 19.150133 -55.736017
LeftForeArm 3.223160 -0.000000 30.305102
LeftHand -25.776223 -0.000000 -6.215461
LeftHandThumb1 -26.253704 0.000000 33.147579
RightShoulder 343.780418 12.140359 315.405707
RightArm 53.465203 -6.562726 5.083036
RightForeArm -18.920879 0.000000 48.161617
RightHand -5.729907 -0.000000 50.076467
RightHandThumb1 -24.326973 -0.000000 -32.862282
LeftUpLeg -2.072531 3.811789 6.307121
LeftLeg -0.859892 -0.000000 0.000000
LeftFoot -7.454131 4.579205 -19.463472
LeftToeBase 10.499922 -0.000000 -0.000000
RightUpLeg -4.013734 -7.924610 0.428095
RightLeg 3.477338 -0.000000 -0.000000
RightFoot -6.183137 -5.753874 -15.392040
RightToeBase 1.284964 -0.000000 -0.000000
2387
root -4.828557 33.066068 -4.066620 5.753123 3.180027 -2.042462
Spine -14.442189 14.781974 -12.844397
Head 17.478107 -17.392605 5.538514
LeftShoulder -17.296506 27.861435 4.645090
LeftArm 23.730677 19.028453 -55.823429
LeftForeArm 3.247396 -0.000000 30.162522
LeftHand -25.756386 -0.000000 -6.294947
LeftHandThumb1 -26.253704 0.000000 33.147579
RightShoulder 343.744355 12.006126 315.450300
RightArm 53.451324 -6.155729 4.934376
RightForeArm -18.620322 -0.000000 48.295260
RightHand -5.785915 -0.000000 50.085185
RightHandThumb1 -24.326973 -0.000000 -32.862282
LeftUpLeg -2.105299 3.814124 6.292078
LeftLeg -0.816907 -0.000000 0.000000
LeftFoot -7.486494 4.636987 -19.414643
LeftToeBase 10.486688 -0.000000 -0.000000
RightUpLeg -4.052204 -7.953398 0.422980
RightLeg 3.492553 -0.000000 -0.000000
RightFoot -6.198990 -5.679034 -15.425236
RightToeBase 1.298563 -0.000000 -0.000000
2388
root -4.828163 33.066701 -4.067568 5.777471 3.136767 -2.052938
Spine -14.440303 14.819197 -12.780307
Head 17.498587 -17.414800 5.553966
LeftShoulder -17.274031 27.818088 4.692582
LeftArm 23.545647 18.847850 -55.960561
LeftForeArm 3.367824 -0.000000 30.099453
LeftHand -25.690983 0.000000 -6.542382
LeftHandThumb1 -26.253704 0.000000 33.147579
RightShoulder 343.712816 11.967103 315.435567
RightArm 53.341169 -5.865102 4.893817
RightForeArm -18.494972 0.000000 48.521725
RightHand -5.717942 -0.000000 49.961628
RightHandThumb1 -24.326973 -0.000000 -32.862282
LeftUpLeg -2.139890 3.828256 6.294441
LeftLeg -0.781070 -0.000000 0.000000
LeftFoot -7.523348 4.662938 -19.429807
LeftToeBase 10.545496 -0.000000 -0.000000
RightUpLeg -4.095766 -7.977442 0.435363
RightLeg 3.514843 -0.000000 -0.000000
RightFoot -6.212870 -5.620663 -15.442273
RightToeBase 1.307791 -0.000000 -0.000000
2389
root -4.826757 33.066846 -4.068024 5.798817 3.093132 -2.055628
Spine -14.434419 14.839425 -12.718355
Head 17.498530 -17.407072 5.542814
LeftShoulder -17.284141 27.797955 4.713151
LeftArm 23.409003 18.738763 -56.031389
LeftForeArm 3.324903 -0.000000 30.079206
LeftHand -25.764799 0.000000 -6.296396
LeftHandThumb1 -26.253704 0.000000 33.147579
RightShoulder 343.665191 11.968800 315.365027
RightArm 53.252754 -5.624438 4.935081
RightForeArm -18.257929 -0.000000 48.742549
RightHand -5.694162 -0.000000 49.802350
RightHandThumb1 -24.326973 -0.000000 -32.862282
LeftUpLeg -2.170317 3.856580 6.288368
LeftLeg -0.741699 -0.000000 0.000000
LeftFoot -7.556098 4.680114 -19.422252
LeftToeBase 10.507779 -0.000000 -0.000000
RightUpLeg -4.130594 -7.979492 0.435397
RightLeg 3.529511 -0.000000 -0.000000
RightFoot -6.221697 -5.561663 -15.412659
RightToeBase 1.266294 -0.000000 -0.000000
2390
root -4.826084 33.067283 -4.068855 5.828003 3.063825 -2.054905
Spine -14.435890 14.848096 -12.667342
Head 17.493652 -17.393693 5.524406
LeftShoulder -17.317728 27.804795 4.719635
LeftArm 23.305491 18.580206 -56.100792
LeftForeArm 3.261150 -0.000000 30.097142
LeftHand -25.879494 0.000000 -6.025657
LeftHandThumb1 -26.253704 0.000000 33.147579
RightShoulder 343.623672 11.845640 315.374475
RightArm 53.167258 -5.224596 4.954008
RightForeArm -18.108225 -0.000000 49.023008
RightHand -5.630394 -0.000000 49.663788
RightHandThumb1 -24.326973 -0.000000 -32.862282
LeftUpLeg -2.210509 3.885246 6.279385
LeftLeg -0.711950 -0.000000 0.000000
LeftFoot -7.569342 4.690068 -19.403713
LeftToeBase 10.520567 -0.000000 -0.000000
RightUpLeg -4.171690 -7.967768 0.434521
RightLeg 3.542137 -0.000000 -0.000000
RightFoot -6.214880 -5.541618 -15.389803
RightToeBase 1.222859 -0.000000 -0.000000
2391
root -4.825623 33.067233 -4.068465 5.852374 3.035548 -2.054019
Spine -14.440134 14.861125 -12.630286
Head 17.470042 -17.411111 5.545808
LeftShoulder -17.358372 27.884794 4.725534
LeftArm 23.266919 18.370387 -56.177733
LeftForeArm 3.316050 0.000000 30.143079
LeftHand -25.771565 -0.000000 -6.267331
LeftHandThumb1 -26.253704 0.000000 33.147579
RightShoulder 343.578351 11.805435 315.333760
RightArm 52.993921 -4.895602 5.140909
RightForeArm -17.948644 -0.000000 49.377759
RightHand -5.565206 -0.000000 49.416065
RightHandThumb1 -24.326973 -0.000000 -32.862282
LeftUpLeg -2.236927 3.919704 6.271529
LeftLeg -0.693114 -0.000000 0.000000
LeftFoot -7.577355 4.695967 -19.381400
LeftToeBase 10.479817 -0.000000 -0.000000
RightUpLeg -4.205895 -7.960968 0.435173
RightLeg 3.556603 -0.000000 -0.000000
RightFoot -6.229315 -5.525371 -15.388968
RightToeBase 1.242588 -0.000000 -0.000000
2392
root -4.829921 33.067513 -4.067385 5.876484 2.988664 -2.064520
Spine -14.447983 14.878930 -12.601247
Head 17.448734 -17.386841 5.580760
LeftShoulder -17.408708 27.907900 4.746257
LeftArm 23.183513 18.193371 -56.248065
LeftForeArm 3.355681 -0.000000 30.219142
LeftHand -25.907705 -0.000000 -6.053790
LeftHandThumb1 -26.253704 0.000000 33.147579
RightShoulder 343.527017 11.641907 315.408691
RightArm 52.887937 -4.360927 5.288121
RightForeArm -17.667228 -0.000000 49.680383
RightHand -5.484296 -0.000000 49.329372
RightHandThumb1 -24.326973 -0.000000 -32.862282
LeftUpLeg -2.259649 3.983939 6.284866
LeftLeg -0.674031 -0.000000 0.000000
LeftFoot -7.585392 4.666974 -19.407221
LeftToeBase 10.552102 -0.000000 -0.000000
RightUpLeg -4.253842 -7.868881 0.442592
RightLeg 3.604956 -0.000000 -0.000000
RightFoot -6.248787 -5.521235 -15.339667
RightToeBase 1.259039 -0.000000 -0.000000
2393
root -4.831001 33.067377 -4.065672 5.889781 2.974187 -2.063580
Spine -14.434592 14.862708 -12.565859
Head 17.432151 -17.363261 5.611499
LeftShoulder -17.498764 28.004547 4.713036
LeftArm 23.192861 17.999272 -56.275262
LeftForeArm 3.365904 -0.000000 30.322006
LeftHand -25.937974 -0.000000 -5.970508
LeftHandThumb1 -26.253704 0.000000 33.147579
RightShoulder 343.488405 11.588257 315.435065
RightArm 52.736966 -3.914965 5.535990
RightForeArm -17.325145 -0.000000 50.018239
RightHand -5.544700 -0.000000 49.089603
RightHandThumb1 -24.326973 -0.000000 -32.862282
LeftUpLeg -2.269577 4.019034 6.281596
LeftLeg -0.669053 -0.000000 0.000000
LeftFoot -7.590844 4.660483 -19.383639
LeftToeBase 10.508286 -0.000000 -0.000000
RightUpLeg -4.269813 -7.849078 0.444391
RightLeg 3.612638 -0.000000 -0.000000
RightFoot -6.244176 -5.530860 -15.350946
RightToeBase 1.239972 -0.000000 -0.000000
